# xmcd
#
# Track frame offsets: 
#        150
#        44161
#        63648
#        89144
#        107119
#        128701
#        159452
#        189946
#        214058
#        237039
#        259149
#        286204
#
# Disc length: 4361 seconds
#
# Revision: 0
# Processed by: cddbd v1.5.2PL0 Copyright (c) Steve Scherf et al.
# Submitted via: ExactAudioCopy v0.99pb4
#
DISCID=b211070c
DTITLE=John Mayall and Sonny Boy Williamson - Transatlantic Blues cd 1
DYEAR=2009
DGENRE=
TTITLE0=Fattenin' Frogs For Snakes
TTITLE1=Bye Bye Bird
TTITLE2=Easy Baby
TTITLE3=Highway 69
TTITLE4=Pontiac Blues
TTITLE5=My Babe
TTITLE6=I'm Gonna Put You Down
TTITLE7=Little Girl
TTITLE8=Down And Out Blues
TTITLE9=Baby, Please Come Back Home
TTITLE10=I'm So Glad
TTITLE11=Down And Out Blues
EXTD=
EXTT0=
EXTT1=
EXTT2=
EXTT3=
EXTT4=
EXTT5=
EXTT6=
EXTT7=
EXTT8=
EXTT9=
EXTT10=
EXTT11=
PLAYORDER=
